HIERARCHY
ROOT Hip
{
    OFFSET 0.0 0.0 0.0
    CHANNELS 6 Xposition Yposition Zposition Zrotation Xrotation Yrotation
    JOINT RightHip
    {
        OFFSET -12.312263488769531 0.0 0.0
        CHANNELS 3 Zrotation Xrotation Yrotation
        JOINT RightKnee
        {
            OFFSET 0.0 0.0 -40.37564468383789
            CHANNELS 3 Zrotation Xrotation Yrotation
            JOINT RightAnkle
            {
                OFFSET 0.0 0.0 -48.72066879272461
                CHANNELS 3 Zrotation Xrotation Yrotation
                End Site
                {
                    OFFSET 0.0 -19.488265991210938 0.0
                }
            }
        }
    }
    JOINT LeftHip
    {
        OFFSET 12.312263488769531 0.0 0.0
        CHANNELS 3 Zrotation Xrotation Yrotation
        JOINT LeftKnee
        {
            OFFSET 0.0 0.0 -40.37564468383789
            CHANNELS 3 Zrotation Xrotation Yrotation
            JOINT LeftAnkle
            {
                OFFSET 0.0 0.0 -48.72066879272461
                CHANNELS 3 Zrotation Xrotation Yrotation
                End Site
                {
                    OFFSET 0.0 -19.488265991210938 0.0
                }
            }
        }
    }
    JOINT Spine
    {
        OFFSET 0.0 0.0 24.192739486694336
        CHANNELS 3 Zrotation Xrotation Yrotation
        JOINT Thorax
        {
            OFFSET 0.0 0.0 26.994895935058594
            CHANNELS 3 Zrotation Xrotation Yrotation
            JOINT Neck
            {
                OFFSET 0.0 0.0 12.848196029663086
                CHANNELS 3 Zrotation Xrotation Yrotation
                End Site
                {
                    OFFSET 0.0 0.0 5.139278411865234
                }
            }
            JOINT LeftShoulder
            {
                OFFSET 14.466825485229492 0.0 0.0
                CHANNELS 3 Zrotation Xrotation Yrotation
                JOINT LeftElbow
                {
                    OFFSET 27.703903198242188 0.0 0.0
                    CHANNELS 3 Zrotation Xrotation Yrotation
                    JOINT LeftWrist
                    {
                        OFFSET 22.818017959594727 0.0 0.0
                        CHANNELS 3 Zrotation Xrotation Yrotation
                        End Site
                        {
                            OFFSET 9.127206802368164 0.0 0.0
                        }
                    }
                }
            }
            JOINT RightShoulder
            {
                OFFSET -14.466825485229492 0.0 0.0
                CHANNELS 3 Zrotation Xrotation Yrotation
                JOINT RightElbow
                {
                    OFFSET -27.703903198242188 0.0 0.0
                    CHANNELS 3 Zrotation Xrotation Yrotation
                    JOINT RightWrist
                    {
                        OFFSET -22.818017959594727 0.0 0.0
                        CHANNELS 3 Zrotation Xrotation Yrotation
                        End Site
                        {
                            OFFSET -9.127206802368164 0.0 0.0
                        }
                    }
                }
            }
        }
    }
}
MOTION
Frames: 8
Frame Time: 0.03333333333333333
0.0 0.0 0.0 112.9669466451528 -11.630198928726262 11.078122982844622 -1.7889616582544277 -28.278383493474944 10.662244351648331 15.015349552049122 31.822665705593796 -32.721451054843016 1.2722218725854067e-14 7.951386703658792e-16 -1.987846675914699e-16 -1.5043837367273252 13.829863111228958 -31.824781268747767 -1.1079482688757512 2.8499890500498077 4.415273286329534 2.2069531490250793e-32 1.5902773407317584e-15 -1.5902773407317584e-15 2.3610569014178138 12.597677774240488 -9.679106873911131 25.393956542257182 -8.315237697821585e-08 -6.6805200210444e-08 3.5308284050804213 23.002694763040065 -26.783185709578095 -82.32004207687966 25.538290156468538 88.0907319982758 -79.91949484709824 7.25305293551574e-06 8.779634773670738e-07 1.893113357765638e-15 -1.5530052155583031e-18 3.3047950987081855e-15 60.74651727553011 -12.58272739229198 45.58244603673674 19.545609769495 5.238246681510211e-06 -1.7612456074525444e-07 -3.1805546814635168e-15 -1.5902773407317584e-15 -4.4139062980501586e-32
0.0 0.0 0.0 119.16893337039679 -10.030517215054306 12.456862435737154 -1.8894449988670485 -25.553867641462997 11.80041862790978 13.806117804804643 26.78902270943753 -32.85072940260209 -6.3611093629270335e-15 -1.6552148617688095e-32 2.981770013872047e-16 -1.5334873367928814 11.989809974749518 -36.160067269472364 -0.3772809096355571 0.8553298140193925 8.284129012730215 -6.3611093629270335e-15 8.827812596100317e-32 -1.5902773407317584e-15 2.054994399023547 9.455400994770939 -10.092253571101221 19.52217538646206 7.931134038555093e-08 1.0119851733245014e-07 11.693674396517798 19.495181912623416 -28.887067478709067 -79.34657067355181 26.43432833596403 88.10065279390625 -77.2056192072539 -2.5430720054938755e-06 2.951089813416984e-06 1.1927080055488188e-15 -1.987846675914698e-16 -1.987846675914698e-15 60.519473131135875 -10.450444392937126 46.002220595480196 18.102555961178425 9.204552195064702e-07 5.029824628549353e-06 -3.1805546814635168e-15 7.951386703658792e-16 2.2069531490250793e-32
0.0 0.0 0.0 124.38935539630242 -8.271437313677467 12.95714413378093 -1.9002287698341869 -22.495970682032514 13.118122656798585 11.122785291695047 21.7908488127638 -32.551093529106865 0.0 0.0 -2.4848083448933725e-16 -1.088750938645485 10.20152114308205 -39.36318327945782 0.4949553938432338 -0.9690556182884408 14.562914391751645 -6.361109362927033e-15 -8.827812596100317e-32 1.5902773407317582e-15 1.5733596152248097 7.426176602133186 -9.736167694356114 15.782591526108325 2.0288762237051658e-07 -2.386430926330825e-07 11.777230806066413 17.72862193973456 -29.004623897491832 -75.66771281797473 27.175455936164536 89.63363536131344 -75.80313190877581 -4.574141078658354e-06 1.4805170248447785e-06 7.951386703658792e-16 3.975693351829396e-16 5.565970692561154e-15 63.66507336305955 -13.346687176517108 47.48007827470136 17.88367870929295 4.711864432792969e-06 -1.5760441700346118e-06 -3.1805546814635168e-15 0.0 0.0
0.0 0.0 0.0 128.05249619497965 -6.342984286229743 12.795906320024764 -2.3035911802414155 -21.18024225028511 13.868161121761165 9.274791339565226 18.365930374096447 -31.11411324088313 0.0 0.0 0.0 -0.7174639153347826 6.83909362864989 -40.07301031194911 0.5740045948360694 -1.1322572566433502 18.85347656263324 0.0 0.0 0.0 1.0310387836615986 4.791475695174254 -9.211377375531946 12.352592914306832 8.863232180374854e-08 1.7273242807033328e-07 12.948427330742236 17.24734154843277 -29.64940873104382 -68.71498987692495 28.38437319286465 91.74376164759722 -75.652430393716 -3.702020934878234e-06 -4.4693923473609453e-07 1.5902773407317584e-15 -2.2069531490250793e-32 -1.5902773407317584e-15 68.50741974936926 -16.472317295532086 47.84720350032899 14.80286351213752 4.673573918348409e-06 1.4984849254809531e-06 -6.3611093629270335e-15 0.0 0.0
0.0 0.0 0.0 132.7168076603371 -4.443484893876933 11.837729924770311 -2.932471627861168 -20.78943262872784 13.889829883849167 7.266460943081595 14.941718028703866 -28.34548300757207 -1.1034765745125397e-32 -1.5902773407317588e-15 -7.951386703658794e-16 -0.4594634518219872 3.8937378467943957 -39.74974707269808 1.0457131403442719 -1.9828273334866298 21.349580387185963 0.0 0.0 7.951386703658792e-16 0.5869587883987771 2.934799593515615 -6.972470650969114 10.665870964657794 1.218853898585054e-07 -1.9639428220286685e-07 14.128760335195661 15.67234510215481 -30.91958890889195 -62.99242367609212 29.150233276413147 89.275500901359 -75.94752764808774 -3.23900942914999e-07 -3.2511974771279972e-06 1.5902773407317584e-15 -5.565970692561154e-15 3.1805546814635168e-15 74.08602667368368 -20.88966977429121 50.287875012208744 14.107908854986123 1.136921999374104e-05 -2.651555912543405e-06 0.0 -3.1805546814635168e-15 0.0
0.0 0.0 0.0 135.0910389432047 -2.070412948491068 10.703154636206778 -4.3668139123667125 -23.38994314837381 14.563441062444246 6.356124785737318 13.926299794371198 -28.577534720968075 0.0 0.0 1.1927080055488192e-15 -0.1157495131672258 -3.7528857255484684 -39.856176307218036 -1.1720993280454064 2.128638983118289 22.38657476798463 0.0 0.0 0.0 -0.04226198594066503 -0.24427839532651136 -5.780194201321901 10.674559447450143 -7.776218640320902e-08 2.3659424136493836e-07 10.474400516773775 15.520087453795256 -28.20133956717135 -60.83154140588124 31.090535357102752 91.03705673729905 -78.75232606054436 8.906391313222951e-07 -8.904191932465571e-07 -3.1805546814635168e-15 8.827812596100317e-32 -3.1805546814635168e-15 68.99981076418817 -14.226463754354667 50.16950915176005 11.444363413696763 3.3923384277708333e-06 1.204941255751736e-06 0.0 0.0 0.0
0.0 0.0 0.0 134.2718935872469 -2.1192169166458603 9.171913345950532 -3.958961899678287 -22.395937305405333 17.433612479212535 5.542861343327324 11.7142207564476 -31.6058329264915 -6.3611093629270335e-15 -1.5902773407317584e-15 7.951386703658791e-16 0.46486897152358814 -3.9767396111929485 -39.669179373929694 -0.5085251821239309 0.895948064671973 23.29971663149661 -1.1034765745125397e-32 -7.951386703658792e-16 -1.5902773407317584e-15 -0.0591593665466248 -0.39781868508695006 -3.5503450460988524 12.11127386439549 2.783081722746974e-07 -9.63984983945614e-07 5.968841450988576 15.917690363446367 -24.77070540658486 -62.6176973523429 32.16136510657415 91.09083840397905 -80.43123931049391 -3.544865542495428e-06 3.2716305686671753e-06 1.5902773407317584e-15 -7.951386703658792e-16 -1.5902773407317584e-15 67.7182601765138 -13.159162606233414 51.65953071344376 13.444877751835874 5.222940533308011e-06 1.0355080153898954e-06 8.827812596100317e-32 -1.5902773407317584e-15 6.3611093629270335e-15
0.0 0.0 0.0 135.69111813954305 -2.657324315652914 8.288739214751214 -2.563328688064941 -20.008466839350294 16.48221429150208 3.3627411710604007 8.203643171551743 -27.753053912138768 0.0 0.0 0.0 -0.47532313832150075 -6.138647189811407 -39.30096420379602 -1.1318744510426393 2.077654469304211 22.36492531538672 0.0 0.0 0.0 -0.04138041748977161 -0.2989717744523032 -2.319362129687874 13.241854824630968 2.6185723589994865e-07 2.7861460472003986e-08 0.09110905891097251 19.401093077769854 -20.435529344213233 -69.40765070250194 32.86230196724556 95.90013860069253 -80.34730560061836 1.5975449668864469e-06 4.861081821703047e-07 -1.5902773407317584e-15 0.0 0.0 68.48662515738872 -14.779199707872335 53.15068299416498 13.52152819576455 -6.43629592957347e-06 3.6806850848384023e-07 0.0 0.0 0.0
